<svg xmlns="http://www.w3.org/2000/svg" xmlns:xlink="http://www.w3.org/1999/xlink" version="1.2" width="39.70mm" height="66.37mm" viewBox="8.4758 -0.0000 22.5905 37.7663">
<style type="text/css">
<![CDATA[
tspan { white-space: pre; }
]]>
</style>
<g color="rgb(100%, 100%, 100%)">
<g transform="translate(8.5358, 37.7498)">
<line stroke-linejoin="round" stroke-linecap="round" stroke-width="0.0330" stroke="currentColor" x1="0.0165" y1="0" x2="22.5305" y2="0"/>
</g>
<g transform="translate(8.5358, 36.0498)">
<line stroke-linejoin="round" stroke-linecap="round" stroke-width="0.0330" stroke="currentColor" x1="0.0165" y1="0" x2="22.5305" y2="0"/>
</g>
<g transform="translate(8.5358, 34.3498)">
<line stroke-linejoin="round" stroke-linecap="round" stroke-width="0.0330" stroke="currentColor" x1="0.0165" y1="0" x2="22.5305" y2="0"/>
</g>
<g transform="translate(8.5358, 32.6498)">
<line stroke-linejoin="round" stroke-linecap="round" stroke-width="0.0330" stroke="currentColor" x1="0.0165" y1="0" x2="22.5305" y2="0"/>
</g>
<g transform="translate(8.5358, 30.9498)">
<line stroke-linejoin="round" stroke-linecap="round" stroke-width="0.0330" stroke="currentColor" x1="0.0165" y1="0" x2="22.5305" y2="0"/>
</g>
<g transform="translate(8.5358, 29.2498)">
<line stroke-linejoin="round" stroke-linecap="round" stroke-width="0.0330" stroke="currentColor" x1="0.0165" y1="0" x2="22.5305" y2="0"/>
</g>
<g transform="translate(8.5358, 27.5498)">
<line stroke-linejoin="round" stroke-linecap="round" stroke-width="0.0330" stroke="currentColor" x1="0.0165" y1="0" x2="22.5305" y2="0"/>
</g>
<g transform="translate(8.5358, 25.8498)">
<line stroke-linejoin="round" stroke-linecap="round" stroke-width="0.0330" stroke="currentColor" x1="0.0165" y1="0" x2="22.5305" y2="0"/>
</g>
<g transform="translate(8.5358, 24.1498)">
<line stroke-linejoin="round" stroke-linecap="round" stroke-width="0.0330" stroke="currentColor" x1="0.0165" y1="0" x2="22.5305" y2="0"/>
</g>
<g transform="translate(8.5358, 22.4498)">
<line stroke-linejoin="round" stroke-linecap="round" stroke-width="0.0330" stroke="currentColor" x1="0.0165" y1="0" x2="22.5305" y2="0"/>
</g>
<g transform="translate(8.5358, 20.7498)">
<line stroke-linejoin="round" stroke-linecap="round" stroke-width="0.0330" stroke="currentColor" x1="0.0165" y1="0" x2="22.5305" y2="0"/>
</g>
<g transform="translate(8.5358, 19.0498)">
<line stroke-linejoin="round" stroke-linecap="round" stroke-width="0.0330" stroke="currentColor" x1="0.0165" y1="0" x2="22.5305" y2="0"/>
</g>
<g transform="translate(8.5358, 17.3498)">
<line stroke-linejoin="round" stroke-linecap="round" stroke-width="0.0330" stroke="currentColor" x1="0.0165" y1="0" x2="22.5305" y2="0"/>
</g>
</g>
<g color="rgb(100%, 100%, 100%)">
<g transform="translate(0.0000, 0.3498)">
<rect x="10.3971" y="-0.1015" width="0.8322" height="0.2030" ry="0.1015" fill="currentColor"/>
</g>
<g transform="translate(0.0000, 2.0498)">
<rect x="10.3971" y="-0.1015" width="0.8322" height="0.2030" ry="0.1015" fill="currentColor"/>
</g>
<g transform="translate(0.0000, 3.7498)">
<rect x="10.3971" y="-0.1015" width="0.8322" height="0.2030" ry="0.1015" fill="currentColor"/>
</g>
<g transform="translate(0.0000, 5.4498)">
<rect x="10.3971" y="-0.1015" width="0.8322" height="0.2030" ry="0.1015" fill="currentColor"/>
</g>
<g transform="translate(0.0000, 7.1498)">
<rect x="10.3971" y="-0.1015" width="0.8322" height="0.2030" ry="0.1015" fill="currentColor"/>
</g>
<g transform="translate(0.0000, 8.8498)">
<rect x="10.3971" y="-0.1015" width="0.8322" height="0.2030" ry="0.1015" fill="currentColor"/>
</g>
<g transform="translate(0.0000, 10.5498)">
<rect x="10.3971" y="-0.1015" width="0.8322" height="0.2030" ry="0.1015" fill="currentColor"/>
</g>
<g transform="translate(0.0000, 12.2498)">
<rect x="10.3971" y="-0.1015" width="0.8322" height="0.2030" ry="0.1015" fill="currentColor"/>
</g>
<g transform="translate(0.0000, 13.9498)">
<rect x="10.3971" y="-0.1015" width="0.8322" height="0.2030" ry="0.1015" fill="currentColor"/>
</g>
<g transform="translate(0.0000, 15.6498)">
<rect x="10.3971" y="-0.1015" width="0.8322" height="0.2030" ry="0.1015" fill="currentColor"/>
</g>
</g>
<g transform="translate(8.4758, 27.5498)">
<rect x="0.0000" y="-10.2165" width="0.1600" height="20.4330" ry="0.0500" fill="currentColor"/>
</g>
<g color="rgb(100%, 100%, 100%)">
<a style="color:inherit;" xlink:href="textedit:///home/vincent/Desktop/lilypond_test/melodie/125.ly:22:0:1">
<g transform="translate(19.0358, 0.3498)">
<path transform="scale(0.0040, -0.0040)" d="M13 -81c-7 0 -13 6 -13 13v129c0 21 52 26 69 26s70 -5 70 -26v-129c0 -7 -6 -13 -13 -13c-2 0 -4 1 -6 2c-16 8 -33 12 -51 12s-35 -4 -51 -12c-2 -1 -3 -2 -5 -2z" fill="currentColor"/>
</g>
</a>
</g>
</svg>
