<svg xmlns="http://www.w3.org/2000/svg" xmlns:xlink="http://www.w3.org/1999/xlink" version="1.2" width="39.70mm" height="67.86mm" viewBox="8.4758 -0.0000 22.5905 38.6163">
<style type="text/css">
<![CDATA[
tspan { white-space: pre; }
]]>
</style>
<g color="rgb(100%, 100%, 100%)">
<g transform="translate(8.5358, 38.5998)">
<line stroke-linejoin="round" stroke-linecap="round" stroke-width="0.0330" stroke="currentColor" x1="0.0165" y1="0" x2="22.5305" y2="0"/>
</g>
<g transform="translate(8.5358, 36.8998)">
<line stroke-linejoin="round" stroke-linecap="round" stroke-width="0.0330" stroke="currentColor" x1="0.0165" y1="0" x2="22.5305" y2="0"/>
</g>
<g transform="translate(8.5358, 35.1998)">
<line stroke-linejoin="round" stroke-linecap="round" stroke-width="0.0330" stroke="currentColor" x1="0.0165" y1="0" x2="22.5305" y2="0"/>
</g>
<g transform="translate(8.5358, 33.4998)">
<line stroke-linejoin="round" stroke-linecap="round" stroke-width="0.0330" stroke="currentColor" x1="0.0165" y1="0" x2="22.5305" y2="0"/>
</g>
<g transform="translate(8.5358, 31.7998)">
<line stroke-linejoin="round" stroke-linecap="round" stroke-width="0.0330" stroke="currentColor" x1="0.0165" y1="0" x2="22.5305" y2="0"/>
</g>
<g transform="translate(8.5358, 30.0998)">
<line stroke-linejoin="round" stroke-linecap="round" stroke-width="0.0330" stroke="currentColor" x1="0.0165" y1="0" x2="22.5305" y2="0"/>
</g>
<g transform="translate(8.5358, 28.3998)">
<line stroke-linejoin="round" stroke-linecap="round" stroke-width="0.0330" stroke="currentColor" x1="0.0165" y1="0" x2="22.5305" y2="0"/>
</g>
<g transform="translate(8.5358, 26.6998)">
<line stroke-linejoin="round" stroke-linecap="round" stroke-width="0.0330" stroke="currentColor" x1="0.0165" y1="0" x2="22.5305" y2="0"/>
</g>
<g transform="translate(8.5358, 24.9998)">
<line stroke-linejoin="round" stroke-linecap="round" stroke-width="0.0330" stroke="currentColor" x1="0.0165" y1="0" x2="22.5305" y2="0"/>
</g>
<g transform="translate(8.5358, 23.2998)">
<line stroke-linejoin="round" stroke-linecap="round" stroke-width="0.0330" stroke="currentColor" x1="0.0165" y1="0" x2="22.5305" y2="0"/>
</g>
<g transform="translate(8.5358, 21.5998)">
<line stroke-linejoin="round" stroke-linecap="round" stroke-width="0.0330" stroke="currentColor" x1="0.0165" y1="0" x2="22.5305" y2="0"/>
</g>
<g transform="translate(8.5358, 19.8998)">
<line stroke-linejoin="round" stroke-linecap="round" stroke-width="0.0330" stroke="currentColor" x1="0.0165" y1="0" x2="22.5305" y2="0"/>
</g>
<g transform="translate(8.5358, 18.1998)">
<line stroke-linejoin="round" stroke-linecap="round" stroke-width="0.0330" stroke="currentColor" x1="0.0165" y1="0" x2="22.5305" y2="0"/>
</g>
</g>
<g color="rgb(100%, 100%, 100%)">
<g transform="translate(0.0000, 1.1998)">
<rect x="10.3971" y="-0.1015" width="0.8322" height="0.2030" ry="0.1015" fill="currentColor"/>
</g>
<g transform="translate(0.0000, 2.8998)">
<rect x="10.3971" y="-0.1015" width="0.8322" height="0.2030" ry="0.1015" fill="currentColor"/>
</g>
<g transform="translate(0.0000, 4.5998)">
<rect x="10.3971" y="-0.1015" width="0.8322" height="0.2030" ry="0.1015" fill="currentColor"/>
</g>
<g transform="translate(0.0000, 6.2998)">
<rect x="10.3971" y="-0.1015" width="0.8322" height="0.2030" ry="0.1015" fill="currentColor"/>
</g>
<g transform="translate(0.0000, 7.9998)">
<rect x="10.3971" y="-0.1015" width="0.8322" height="0.2030" ry="0.1015" fill="currentColor"/>
</g>
<g transform="translate(0.0000, 9.6998)">
<rect x="10.3971" y="-0.1015" width="0.8322" height="0.2030" ry="0.1015" fill="currentColor"/>
</g>
<g transform="translate(0.0000, 11.3998)">
<rect x="10.3971" y="-0.1015" width="0.8322" height="0.2030" ry="0.1015" fill="currentColor"/>
</g>
<g transform="translate(0.0000, 13.0998)">
<rect x="10.3971" y="-0.1015" width="0.8322" height="0.2030" ry="0.1015" fill="currentColor"/>
</g>
<g transform="translate(0.0000, 14.7998)">
<rect x="10.3971" y="-0.1015" width="0.8322" height="0.2030" ry="0.1015" fill="currentColor"/>
</g>
<g transform="translate(0.0000, 16.4998)">
<rect x="10.3971" y="-0.1015" width="0.8322" height="0.2030" ry="0.1015" fill="currentColor"/>
</g>
</g>
<g transform="translate(8.4758, 28.3998)">
<rect x="0.0000" y="-10.2165" width="0.1600" height="20.4330" ry="0.0500" fill="currentColor"/>
</g>
<g color="rgb(100%, 100%, 100%)">
<a style="color:inherit;" xlink:href="textedit:///home/vincent/Desktop/lilypond_test/melodie/127.ly:22:0:1">
<g transform="translate(19.0358, 0.3498)">
<path transform="scale(0.0040, -0.0040)" d="M13 -81c-7 0 -13 6 -13 13v129c0 21 52 26 69 26s70 -5 70 -26v-129c0 -7 -6 -13 -13 -13c-2 0 -4 1 -6 2c-16 8 -33 12 -51 12s-35 -4 -51 -12c-2 -1 -3 -2 -5 -2z" fill="currentColor"/>
</g>
</a>
</g>
</svg>
