<svg xmlns="http://www.w3.org/2000/svg" xmlns:xlink="http://www.w3.org/1999/xlink" version="1.2" width="39.70mm" height="37.94mm" viewBox="8.4758 -0.0000 22.5905 21.5888">
<style type="text/css">
<![CDATA[
tspan { white-space: pre; }
]]>
</style>
<g color="rgb(100%, 100%, 100%)">
<g transform="translate(8.5358, 20.4165)">
<line stroke-linejoin="round" stroke-linecap="round" stroke-width="0.0330" stroke="currentColor" x1="0.0165" y1="0" x2="22.5305" y2="0"/>
</g>
<g transform="translate(8.5358, 18.7165)">
<line stroke-linejoin="round" stroke-linecap="round" stroke-width="0.0330" stroke="currentColor" x1="0.0165" y1="0" x2="22.5305" y2="0"/>
</g>
<g transform="translate(8.5358, 17.0165)">
<line stroke-linejoin="round" stroke-linecap="round" stroke-width="0.0330" stroke="currentColor" x1="0.0165" y1="0" x2="22.5305" y2="0"/>
</g>
<g transform="translate(8.5358, 15.3165)">
<line stroke-linejoin="round" stroke-linecap="round" stroke-width="0.0330" stroke="currentColor" x1="0.0165" y1="0" x2="22.5305" y2="0"/>
</g>
<g transform="translate(8.5358, 13.6165)">
<line stroke-linejoin="round" stroke-linecap="round" stroke-width="0.0330" stroke="currentColor" x1="0.0165" y1="0" x2="22.5305" y2="0"/>
</g>
<g transform="translate(8.5358, 11.9165)">
<line stroke-linejoin="round" stroke-linecap="round" stroke-width="0.0330" stroke="currentColor" x1="0.0165" y1="0" x2="22.5305" y2="0"/>
</g>
<g transform="translate(8.5358, 10.2165)">
<line stroke-linejoin="round" stroke-linecap="round" stroke-width="0.0330" stroke="currentColor" x1="0.0165" y1="0" x2="22.5305" y2="0"/>
</g>
<g transform="translate(8.5358, 8.5165)">
<line stroke-linejoin="round" stroke-linecap="round" stroke-width="0.0330" stroke="currentColor" x1="0.0165" y1="0" x2="22.5305" y2="0"/>
</g>
<g transform="translate(8.5358, 6.8165)">
<line stroke-linejoin="round" stroke-linecap="round" stroke-width="0.0330" stroke="currentColor" x1="0.0165" y1="0" x2="22.5305" y2="0"/>
</g>
<g transform="translate(8.5358, 5.1165)">
<line stroke-linejoin="round" stroke-linecap="round" stroke-width="0.0330" stroke="currentColor" x1="0.0165" y1="0" x2="22.5305" y2="0"/>
</g>
<g transform="translate(8.5358, 3.4165)">
<line stroke-linejoin="round" stroke-linecap="round" stroke-width="0.0330" stroke="currentColor" x1="0.0165" y1="0" x2="22.5305" y2="0"/>
</g>
<g transform="translate(8.5358, 1.7165)">
<line stroke-linejoin="round" stroke-linecap="round" stroke-width="0.0330" stroke="currentColor" x1="0.0165" y1="0" x2="22.5305" y2="0"/>
</g>
<g transform="translate(8.5358, 0.0165)">
<line stroke-linejoin="round" stroke-linecap="round" stroke-width="0.0330" stroke="currentColor" x1="0.0165" y1="0" x2="22.5305" y2="0"/>
</g>
</g>
<g color="rgb(100%, 100%, 100%)">
</g>
<g transform="translate(8.4758, 10.2165)">
<rect x="0.0000" y="-10.2165" width="0.1600" height="20.4330" ry="0.0500" fill="currentColor"/>
</g>
<g color="rgb(100%, 100%, 100%)">
<a style="color:inherit;" xlink:href="textedit:///home/vincent/Desktop/lilypond_test/melodie/49.ly:22:0:1">
<g transform="translate(19.0358, 21.2665)">
<path transform="scale(0.0040, -0.0040)" d="M13 -81c-7 0 -13 6 -13 13v129c0 21 52 26 69 26s70 -5 70 -26v-129c0 -7 -6 -13 -13 -13c-2 0 -4 1 -6 2c-16 8 -33 12 -51 12s-35 -4 -51 -12c-2 -1 -3 -2 -5 -2z" fill="currentColor"/>
</g>
</a>
</g>
</svg>
